<?xml version="1.0" encoding="utf-8"?>
<!-- Generator: Adobe Illustrator 15.0.0, SVG Export Plug-In . SVG Version: 6.00 Build 0)  -->
<!DOCTYPE svg PUBLIC "-//W3C//DTD SVG 1.0//EN" "http://www.w3.org/TR/2001/REC-SVG-20010904/DTD/svg10.dtd">
<svg version="1.0" id="Layer_1" xmlns="http://www.w3.org/2000/svg" xmlns:xlink="http://www.w3.org/1999/xlink" x="0px" y="0px"
	 width="350px" height="350px" viewBox="0 0 350 350" enable-background="new 0 0 350 350" xml:space="preserve">
<g>
	<path fill="#54804D" d="M75.373,163.247c0,0-32.946,54.911-42.36,85.504c0,0,24.318-9.413,34.516,3.923l25.102-73.738
		L75.373,163.247z"/>
	<path fill="#030303" d="M67.721,253.846l-0.637-0.832c-3.516-4.598-9.162-6.928-16.783-6.928c-8.741,0-17.004,3.156-17.086,3.188
		l-1.077,0.416l0.339-1.104c9.326-30.307,42.085-85.078,42.415-85.627l0.352-0.586l18.035,16.395L67.721,253.846z M50.301,244.965
		c7.541,0,13.262,2.21,17.023,6.57l24.658-72.433l-16.479-14.98c-3.521,5.929-32.461,55.069-41.621,83.727
		C36.44,246.99,43.212,244.965,50.301,244.965z"/>
</g>
<g>
	<path fill="#54804D" d="M75.107,157.797c0,0-30.009,99.287-7.3,129.073c5.741,7.53,26.301,10.045,34.322,12.087
		c38.29,9.743,78.914,9.282,118.162,9.094c25.654-0.12,59.602-1.969,73.518-27.855c12.388-23.043-3.662-49.111-18.132-66.96
		c-11.146-13.746-10.519-63.682,8.688-71.344L75.107,157.797z"/>
	<path fill="#030303" d="M201.074,308.68c-30.483,0-65.793-0.71-99.083-9.181c-1.627-0.414-3.762-0.845-6.233-1.344
		c-10.002-2.021-23.701-4.788-28.396-10.946c-9.515-12.479-11.188-38.096-4.974-76.136c4.616-28.255,12.108-53.19,12.183-53.438
		l0.111-0.368l0.382-0.029l212.906-16.183l-3.398,1.355c-7.496,2.991-11.319,12.249-13.207,19.49
		c-4.658,17.874-2.396,42.173,4.746,50.982c9.334,11.513,15.623,21.879,19.229,31.691c4.918,13.384,4.568,25.457-1.037,35.887
		c-13.169,24.495-43.354,28.006-74.01,28.15l-3.004,0.015C211.982,308.652,206.498,308.68,201.074,308.68z M75.535,158.326
		c-1.958,6.645-28.869,99.89-7.282,128.204c4.439,5.822,18.454,8.653,27.727,10.526c2.486,0.503,4.633,0.937,6.288,1.357
		c33.164,8.438,68.391,9.146,98.807,9.146c5.42,0,10.905-0.027,16.209-0.054l3.004-0.015c30.312-0.143,60.137-3.58,73.028-27.562
		c9.447-17.573,3.366-39.895-18.073-66.342c-7.329-9.039-9.693-33.81-4.96-51.969c1.734-6.654,5.078-14.967,11.364-18.959
		L75.535,158.326z"/>
</g>
<g>
	<path fill="#54804D" d="M280.898,143.635c0,0,9.413,50.205,23.533,65.109c0,0,15.688,27.456,14.119,47.067
		c0,0-23.533,12.55-46.282,4.707C272.269,260.519,251.873,169.522,280.898,143.635z"/>
	<path fill="#0C0C0C" d="M288.322,263.657c-5.752,0-11.215-0.878-16.236-2.609l-0.295-0.103l-0.068-0.305
		c-0.052-0.229-5.126-23.092-6.583-48.824c-1.962-34.664,3.215-57.744,15.386-68.599l0.74-0.661l0.183,0.975
		c0.094,0.5,9.544,50.213,23.39,64.828l0.08,0.106c0.157,0.276,15.756,27.833,14.191,47.39l-0.023,0.306l-0.271,0.145
		C318.678,256.379,304.838,263.657,288.322,263.657z M272.748,260.09c4.822,1.624,10.061,2.447,15.574,2.447
		c14.975,0,27.697-6.078,29.695-7.081c1.316-18.767-13.247-44.968-14.04-46.377c-13.117-13.925-22.007-57.036-23.438-64.349
		c-14.145,13.577-15.594,43.833-14.281,67.022C267.617,235.781,272.143,257.291,272.748,260.09z"/>
</g>
<g>
	<path fill="#7CAA77" d="M313.846,256.926v8.787c-4.707,9.498-15.609-3.041-15.609-3.041L313.846,256.926z"/>
	<path fill="#010101" d="M308.918,269.828c-5.144,0-10.863-6.512-11.105-6.789l-0.531-0.612l17.123-6.304v9.721l-0.057,0.118
		C313.074,268.527,311.248,269.828,308.918,269.828z M299.217,262.906c1.531,1.596,5.928,5.802,9.701,5.802
		c1.861,0,3.291-1.023,4.367-3.128v-7.852L299.217,262.906z"/>
</g>
<path fill="#111111" d="M153.033,189.133c-1.728,6.741-3.069,13.564-4.166,20.414c-0.536,3.428-1.016,6.861-1.375,10.307
	c-0.371,3.444-0.659,6.896-0.809,10.352c-0.327,6.906-0.166,13.839,0.78,20.66c0.983,6.795,2.781,13.541,6.153,19.509l-0.188-0.207
	c1.051,0.823,1.931,1.707,2.783,2.665c0.841,0.955,1.609,1.973,2.288,3.048c1.349,2.154,2.342,4.542,2.824,7.036
	c0.477,2.495,0.417,5.07-0.098,7.524c-0.255,1.229-0.622,2.429-1.074,3.591c-0.463,1.158-1.014,2.277-1.628,3.355
	c1.063-2.24,1.869-4.604,2.245-7.029c0.377-2.425,0.288-4.905-0.282-7.262c-0.552-2.362-1.584-4.594-2.945-6.592
	c-0.676-1.002-1.432-1.95-2.255-2.834c-0.818-0.876-1.727-1.727-2.649-2.407l-0.115-0.085l-0.073-0.122
	c-3.635-6.097-5.598-13.021-6.616-19.954c-0.515-3.477-0.798-6.98-0.892-10.482c-0.095-3.504-0.045-7.006,0.17-10.497
	c0.419-6.983,1.363-13.916,2.691-20.763c0.67-3.423,1.425-6.828,2.304-10.199C150.981,195.788,151.907,192.428,153.033,189.133z"/>
<path fill="#111111" d="M73.804,235.416c2.896,5.193,7.339,9.361,12.351,12.436c5.02,3.086,10.612,5.227,16.375,6.352
	c2.906,0.562,5.819,0.998,8.755,1.31c0.73,0.085,1.473,0.153,2.196,0.22c0.709,0.056,1.438,0.046,2.174,0.031
	c1.473-0.031,2.97-0.107,4.498,0.024c0.763,0.071,1.539,0.193,2.3,0.471c0.78,0.28,1.448,0.763,2.029,1.264
	c1.168,1.017,2.114,2.181,3.122,3.23c0.5,0.539,1.013,0.982,1.594,1.468c0.562,0.471,1.13,0.931,1.712,1.379
	c1.161,0.897,2.357,1.746,3.591,2.534c4.956,3.132,10.44,5.414,16.093,7.018c5.659,1.574,11.557,2.322,17.431,2.126
	c5.867-0.202,11.732-1.277,17.188-3.503c2.732-1.096,5.373-2.425,7.919-3.918c2.552-1.484,5.014-3.127,7.388-4.894l0.087-0.065
	l0.103,0.056c0.758,0.401,1.736,0.437,2.606,0.228c0.886-0.209,1.712-0.649,2.455-1.191c1.49-1.097,2.69-2.556,3.741-4.087
	c-0.998,1.565-2.141,3.077-3.627,4.24c-0.742,0.571-1.58,1.051-2.506,1.296c-0.922,0.235-1.93,0.256-2.846-0.196l0.191-0.011
	c-4.663,3.671-9.732,6.89-15.242,9.2c-5.5,2.332-11.454,3.575-17.423,3.807c-5.976,0.232-11.979-0.496-17.747-2.068
	c-5.746-1.605-11.354-3.861-16.4-7.119c-1.259-0.814-2.479-1.688-3.658-2.609c-0.589-0.459-1.17-0.936-1.742-1.419
	c-0.554-0.466-1.16-0.998-1.665-1.551c-1.035-1.094-1.965-2.243-3.034-3.179c-0.536-0.467-1.093-0.866-1.712-1.09
	c-0.63-0.235-1.332-0.354-2.041-0.424c-1.428-0.132-2.9-0.068-4.388-0.044c-0.745,0.011-1.5,0.018-2.269-0.046
	c-0.752-0.073-1.485-0.146-2.227-0.234c-2.955-0.347-5.9-0.847-8.805-1.454c-5.845-1.247-11.48-3.481-16.492-6.72
	C80.907,245.037,76.497,240.727,73.804,235.416z"/>
<g>
	<path fill="#7CAA77" d="M42.95,247.443c0,0-2.002,12.367-0.751,16.442c0.179,0.583,0.424,0.995,0.751,1.179
		c2.614,1.467,5.491-4.024,7.06-6.378c1.569-2.353,0-2.311,0-2.311s3.399-4.749,3.399-7.625s0-2.876,0-2.876
		S46.349,244.306,42.95,247.443z"/>
	<path fill="#010101" d="M43.86,265.87c-0.411,0-0.809-0.107-1.184-0.317c-0.448-0.251-0.78-0.743-1.013-1.503
		c-1.274-4.152,0.651-16.187,0.733-16.696l0.031-0.191l0.142-0.131c1.516-1.399,3.833-2.109,6.884-2.109
		c2.226,0,4.002,0.389,4.077,0.406l0.438,0.098v3.325c0,2.434-2.181,5.976-3.104,7.366c0.101,0.085,0.189,0.191,0.259,0.321
		c0.317,0.592,0.104,1.429-0.648,2.559c-0.216,0.323-0.456,0.707-0.718,1.123C48.235,262.547,46.15,265.87,43.86,265.87z
		 M43.472,247.729c-0.246,1.589-1.852,12.362-0.738,15.993c0.194,0.632,0.406,0.808,0.489,0.854
		c0.208,0.118,0.417,0.175,0.636,0.175c1.67,0,3.723-3.271,4.95-5.225c0.267-0.427,0.513-0.818,0.734-1.149
		c0.716-1.074,0.595-1.407,0.593-1.409c-0.015-0.013-0.079-0.03-0.124-0.031l-1.063-0.021l0.604-0.865
		c0.033-0.046,3.294-4.636,3.294-7.299v-2.413c-0.643-0.111-1.927-0.296-3.395-0.296C47.61,246.042,45.102,246.338,43.472,247.729z"
		/>
</g>
<g>
	<path fill="#7CAA77" d="M32.493,51.151c0,0,63.833-4.48,82.871,13.438c0,0,43.675-52.635,120.947,3.359
		c0,0,24.077-13.438,103.589,0c0,0-29.117,72.792-103.029,50.395c0,0-32.477,33.036-88.47,24.637c0,0-34.156-7.839-45.355-30.797
		C103.046,112.184,72.249,124.503,32.493,51.151z"/>
	<path fill="#010101" d="M166.436,145.188c-5.959,0-12.069-0.463-18.16-1.377l-0.063-0.012c-1.397-0.32-34.051-8.047-45.598-30.599
		c-0.909,0.248-2.631,0.602-5.062,0.602c-5.535,0-14.511-1.819-25.839-10.487C58.218,92.99,44.775,75.573,31.755,51.551
		l-0.622-1.147l1.301-0.091c0.071-0.005,7.239-0.5,17.313-0.5c22.942,0,52.741,2.375,65.555,13.586
		c3.448-3.727,22.015-22.078,53.091-22.078c21.508,0,44.382,8.628,67.995,25.648c2.424-1.153,13.945-5.833,41.316-5.833
		c17.867,0,38.84,2.014,62.336,5.984l1.025,0.174l-0.387,0.966c-0.055,0.138-5.664,13.963-17.832,27.584
		c-11.256,12.599-30.588,27.617-58.764,27.619c-0.002,0-0.004,0-0.005,0c-8.616,0-17.688-1.404-26.974-4.173
		c-1.525,1.466-7.706,7.095-18.225,12.794C207.846,138.062,189.791,145.188,166.436,145.188z M148.559,142.155
		c5.998,0.898,12.012,1.354,17.877,1.354c43.972-0.001,69.583-25.497,69.837-25.754l0.355-0.362l0.486,0.147
		c9.293,2.816,18.366,4.245,26.964,4.245c0.002,0,0.003,0,0.005,0c27.555-0.002,46.482-14.716,57.51-27.059
		c10.135-11.344,15.631-22.793,17.113-26.126c-22.977-3.838-43.494-5.783-61.002-5.783c-30.121,0-40.879,5.807-40.984,5.866
		l-0.469,0.261l-0.434-0.314C212.351,51.624,189.666,43,168.394,43c-33.634,0-52.199,21.904-52.383,22.125l-0.571,0.688
		l-0.651-0.613c-12.673-11.927-46.19-13.708-65.042-13.708c-7.506,0-13.384,0.276-15.885,0.416
		c12.708,23.214,25.783,40.057,38.871,50.073c10.954,8.382,19.542,10.142,24.818,10.142c3.311,0,5.166-0.712,5.184-0.72l0.722-0.283
		l0.343,0.696C114.557,133.865,147.387,141.877,148.559,142.155z"/>
</g>
<g>
	<path fill="#010101" d="M113.125,86.427c0,0,11.759-17.142,26.317,6.828C139.442,93.254,113.125,113.864,113.125,86.427z"/>
	<path fill="#0C0C0C" d="M122.375,101.523c-4.603,0-10.09-2.619-10.09-15.096v-0.26l0.147-0.215c0.177-0.257,4.4-6.302,11.085-6.302
		c5.736,0,11.335,4.431,16.643,13.169l0.387,0.638l-0.587,0.46C139.563,94.227,130.156,101.523,122.375,101.523z M113.965,86.702
		c0.058,8.721,2.886,13.142,8.409,13.142c6.147,0,13.779-5.221,15.95-6.802c-4.856-7.772-9.835-11.711-14.807-11.711
		C118.364,81.33,114.729,85.702,113.965,86.702z"/>
</g>
<g>
	<path fill="#010101" d="M167.439,93.254c0,0,13.438-23.146,33.596-2.668C201.035,90.586,185.917,112.96,167.439,93.254z"/>
	<path fill="#0C0C0C" d="M183.109,102.211c-5.59,0-11.068-2.82-16.283-8.382l-0.427-0.456l0.313-0.541
		c0.274-0.471,6.83-11.544,17.866-11.544c5.63,0,11.367,2.93,17.057,8.708l0.481,0.49l-0.385,0.57
		C201.424,91.512,194.067,102.211,183.109,102.211z M168.5,93.15c4.746,4.898,9.659,7.381,14.61,7.381
		c8.707,0,15.182-7.701,16.824-9.859c-5.191-5.112-10.354-7.703-15.355-7.703C175.826,82.969,169.926,90.994,168.5,93.15z"/>
</g>
<g>
	<path fill="#E2B9D7" d="M50.971,57.31c0,0,34.532,1.674,50.395,13.438c0,0,8.959,5.04,6.16,15.678c0,0-5.6,16.57-4.479,19.204
		C103.046,105.63,66.649,113.864,50.971,57.31z"/>
	<path fill="#010101" d="M98.148,106.889c-10.314,0-35.637-4.809-47.986-49.354l-0.311-1.12l1.161,0.056
		c1.419,0.069,34.92,1.819,50.82,13.577c0.769,0.463,9.32,5.898,6.505,16.592l-0.017,0.055c-2.702,7.996-5.125,17.142-4.502,18.606
		l0.394,0.926l-0.981,0.222C103.151,106.468,101.252,106.889,98.148,106.889z M52.101,58.222
		c12.148,42.38,36.204,46.987,46.047,46.987c1.783,0,3.149-0.149,3.94-0.265c-0.185-4.224,3.747-16.138,4.632-18.759
		c2.582-9.878-5.682-14.658-5.766-14.705l-0.088-0.058C87.021,61.155,58.251,58.648,52.101,58.222z"/>
</g>
<g>
	<path fill="#E2B9D7" d="M230.152,111.624c0,0,11.759-28.673,21.838-31.134c0,0,66.072-12.541,73.352-9.741
		C325.342,70.749,320.863,129.994,230.152,111.624z"/>
	<path fill="#010101" d="M262.215,115.997c-9.755,0-20.598-1.194-32.229-3.55l-0.995-0.201l0.385-0.94
		c0.486-1.187,12.041-29.098,22.416-31.632c2.229-0.424,53.77-10.173,69.707-10.173c1.979,0,3.334,0.152,4.145,0.464l0.584,0.224
		l-0.047,0.623c-0.035,0.463-0.957,11.475-9.318,22.644C309.162,103.739,293.432,115.997,262.215,115.997z M231.328,111.003
		c11.14,2.199,21.525,3.314,30.887,3.314c24.119,0,42.531-7.538,53.248-21.799c6.938-9.231,8.617-18.581,8.963-21.147
		c-0.566-0.104-1.475-0.19-2.928-0.19c-15.779,0-68.817,10.033-69.352,10.134C243.635,83.395,233.451,106.072,231.328,111.003z"/>
</g>
<path fill="#010101" d="M141.682,100.683c0.342-0.357,0.72-0.681,1.125-0.972c0.407-0.286,0.836-0.56,1.333-0.714
	c0.247-0.075,0.512-0.125,0.789-0.104c0.275,0.019,0.561,0.128,0.777,0.318c0.438,0.389,0.593,0.936,0.69,1.436l-0.008-0.034
	c0.401,1.071,1.067,2.139,2.021,2.717c0.478,0.282,1.026,0.417,1.581,0.374c0.556-0.038,1.104-0.238,1.62-0.503
	c0.517-0.269,0.998-0.619,1.463-0.989c0.23-0.189,0.458-0.381,0.677-0.586l0.327-0.31c0.111-0.114,0.245-0.22,0.374-0.309
	c0.264-0.181,0.556-0.329,0.878-0.401c0.32-0.073,0.675-0.04,0.967,0.111c0.591,0.313,0.877,0.917,1.065,1.482
	c-0.264-0.534-0.613-1.086-1.147-1.298c-0.534-0.208-1.116,0.034-1.56,0.382c-0.115,0.09-0.216,0.18-0.311,0.29l-0.314,0.336
	c-0.211,0.223-0.435,0.436-0.662,0.646c-0.458,0.416-0.961,0.789-1.511,1.101c-0.548,0.31-1.166,0.541-1.824,0.595
	c-0.656,0.062-1.345-0.098-1.906-0.446c-0.565-0.343-1.015-0.824-1.369-1.349c-0.352-0.532-0.624-1.089-0.822-1.703l-0.006-0.018
	l-0.002-0.017c-0.06-0.458-0.181-0.927-0.481-1.219c-0.292-0.3-0.776-0.331-1.227-0.214c-0.454,0.116-0.901,0.32-1.322,0.565
	C142.477,100.099,142.071,100.379,141.682,100.683z"/>
<path fill="#010101" d="M142.334,89.319c-0.792-1.551-1.65-3.067-2.58-4.536c-0.917-1.476-1.897-2.912-2.962-4.279
	c-2.125-2.713-4.54-5.313-7.578-6.919c-1.5-0.803-3.175-1.31-4.871-1.276c-1.699,0.017-3.352,0.6-4.816,1.478
	c-1.469,0.885-2.758,2.064-3.908,3.357c-1.166,1.283-2.186,2.699-3.148,4.15c1.726-3.004,3.843-5.923,6.83-7.873
	c1.48-0.969,3.235-1.578,5.032-1.622c1.799-0.052,3.574,0.468,5.143,1.292c1.569,0.84,2.962,1.952,4.224,3.174
	c1.259,1.229,2.407,2.563,3.436,3.981C139.197,83.074,140.946,86.121,142.334,89.319z"/>
<path fill="#010101" d="M161.932,91.75c1.516-4.193,3.839-8.136,6.946-11.394c1.554-1.625,3.361-3.027,5.369-4.074
	c2.005-1.047,4.226-1.701,6.488-1.875c2.266-0.167,4.544,0.137,6.709,0.758c2.168,0.627,4.241,1.543,6.182,2.669
	c3.895,2.245,7.349,5.147,10.488,8.312c-1.653-1.498-3.344-2.954-5.128-4.286c-1.772-1.346-3.622-2.588-5.57-3.651
	c-1.95-1.053-3.98-1.966-6.11-2.554c-2.123-0.593-4.338-0.867-6.527-0.691c-2.189,0.153-4.341,0.768-6.298,1.771
	c-1.964,0.996-3.721,2.372-5.296,3.922c-1.572,1.559-2.942,3.321-4.143,5.19C163.83,87.711,162.781,89.687,161.932,91.75z"/>
<path fill="#010101" d="M151.573,64.402c0.115,1.532,0.152,3.067,0.17,4.601c0.025,1.534-0.003,3.066-0.031,4.598
	c-0.041,1.532-0.083,3.063-0.16,4.593l-0.11,2.296c-0.054,0.766-0.085,1.531-0.149,2.297c-0.062-0.766-0.086-1.533-0.125-2.299
	l-0.046-2.301c-0.024-1.534,0.003-3.066,0.031-4.599c0.042-1.532,0.084-3.062,0.162-4.593
	C151.385,67.465,151.457,65.935,151.573,64.402z"/>
<path fill="#010101" d="M138.462,96.786c-2.331,1.792-4.885,3.293-7.574,4.512c-2.69,1.199-5.572,2.091-8.563,2.238
	c-1.492,0.05-3.006-0.119-4.435-0.599c-1.423-0.48-2.753-1.272-3.811-2.337c-1.067-1.055-1.895-2.318-2.527-3.655
	c-0.618-1.346-1.065-2.758-1.367-4.196c0.424,1.405,0.921,2.79,1.613,4.074c0.671,1.29,1.52,2.49,2.579,3.466
	c1.059,0.971,2.307,1.729,3.673,2.164c1.364,0.441,2.815,0.585,4.253,0.523c2.893-0.095,5.722-0.971,8.414-2.072
	c1.351-0.554,2.669-1.19,3.958-1.884C135.972,98.339,137.233,97.59,138.462,96.786z"/>
<path fill="#010101" d="M165.199,97.066c1.458,1.033,2.981,1.967,4.552,2.808c1.564,0.853,3.175,1.616,4.829,2.265
	c3.301,1.296,6.788,2.202,10.325,2.245c1.763,0.041,3.532-0.137,5.241-0.567c1.711-0.426,3.346-1.125,4.871-2.013
	c3.055-1.799,5.54-4.459,7.558-7.397c-0.913,1.537-1.98,2.986-3.192,4.313c-1.226,1.314-2.609,2.492-4.142,3.452
	c-3.063,1.938-6.734,2.836-10.346,2.771c-3.622-0.092-7.173-1.011-10.477-2.408C171.117,101.123,167.989,99.304,165.199,97.066z"/>
<g>
	<path fill="#376732" d="M138.462,139.621c0,0,129.486-48.715,151.604-13.158c0,0,4.199,18.758-2.521,32.756
		c0,0-163.223-1.96-174.421,28.837C111.365,192.895,53.176,156.491,138.462,139.621z"/>
	<path fill="#010101" d="M112.208,189.055c-4.405,0-19.477-9.684-20.584-20.995c-0.865-8.833,6.533-21.028,46.686-28.979
		c2.09-0.781,70.55-26.167,115.518-26.167c18.893,0,31.244,4.459,36.715,13.253l0.051,0.081l0.021,0.093
		c0.042,0.189,4.165,19.109-2.562,33.121l-0.154,0.322l-0.357-0.004c-0.002,0-2.083-0.025-5.781-0.025
		c-26.342,0-158.245,1.374-168.107,28.494C113.542,188.549,113.208,189.055,112.208,189.055z M253.826,114.034
		c-45.238,0-114.473,25.851-115.167,26.111l-0.089,0.026c-39.367,7.787-46.653,19.405-45.833,27.78
		c1.078,11.006,16.038,19.985,19.47,19.985c0.263,0,0.375-0.055,0.393-0.074c4.291-11.802,30.396-20.227,77.589-25.039
		c37.08-3.78,76.389-4.188,91.568-4.188c2.812,0,4.691,0.015,5.436,0.021c6.113-13.135,2.645-30.561,2.346-31.979
		C284.26,118.287,272.246,114.034,253.826,114.034z"/>
</g>
<g>
	<path fill="#376732" d="M87.367,109.968c10.737,4.5,21.979,8.115,33.471,10.029c4.818,0.803,8.19-1.284,12.769-1.545
		c2.771-0.155,23.537,7.98,22.073,10.555c-8.232,14.473-18.387,28.38-30.577,39.773c-5.154,4.816-11.899,7.008-18.683,8.511
		c-2.491,0.552-7.717,1.328-8.413,4.322c-0.208,0.896-10.35-4.196-11.116-4.728c-14.842-10.302-19.465-33.031-13.287-49.081
		C76.312,120.772,81.649,114.767,87.367,109.968z"/>
	<path fill="#010101" d="M97.773,182.279c-1.815,0-10.601-4.518-11.201-4.934c-7.086-4.918-12.325-12.984-14.75-22.709
		c-2.285-9.163-1.826-19.016,1.26-27.033c2.406-6.251,7.091-12.328,13.925-18.064l0.262-0.22l0.315,0.132
		c11.83,4.957,22.738,8.226,33.346,9.993c0.708,0.118,1.399,0.175,2.117,0.175c1.903,0,3.604-0.407,5.403-0.838
		c1.605-0.385,3.266-0.783,5.125-0.889c0.037-0.002,0.075-0.003,0.115-0.003c3.013,0,20.458,6.744,22.396,10.078
		c0.346,0.595,0.235,1.044,0.08,1.316c-9.049,15.909-19.372,29.335-30.682,39.906c-5.501,5.141-12.664,7.257-18.944,8.649
		c-0.246,0.055-0.519,0.111-0.811,0.172c-2.48,0.516-6.631,1.379-7.178,3.73C98.492,182,98.255,182.279,97.773,182.279z
		 M97.773,181.16v0.559l0.01-0.561C97.78,181.159,97.777,181.159,97.773,181.16z M87.467,110.617
		c-6.545,5.547-11.033,11.396-13.34,17.389c-5.747,14.93-2.379,37.688,13.083,48.42c0.632,0.438,8.508,4.373,10.353,4.711
		c0.966-2.774,5.305-3.676,7.939-4.223c0.287-0.061,0.555-0.115,0.796-0.17c6.133-1.359,13.118-3.417,18.422-8.374
		c11.227-10.493,21.479-23.83,30.472-39.641c0-0.002,0.009-0.135-0.25-0.442c-2.59-3.069-18.806-9.278-21.252-9.278
		c-1.811,0.102-3.422,0.487-4.979,0.86c-1.784,0.428-3.628,0.87-5.664,0.87c-0.779,0-1.532-0.062-2.301-0.19
		C110.146,118.784,99.256,115.535,87.467,110.617z"/>
</g>
<g>
	<path fill="#FFFFFF" d="M127.402,83.193c0,0-5.878,3.56-1.958,9.556C125.443,92.749,115.642,88.079,127.402,83.193z"/>
	<path fill="#010101" d="M126.224,93.431l-0.901-0.429c-0.166-0.079-4.057-1.965-3.987-4.711c0.049-1.932,2.054-3.734,5.959-5.356
		l0.253,0.498c-0.024,0.015-2.45,1.516-3.041,4.123c-0.362,1.601,0.031,3.296,1.171,5.041L126.224,93.431z M125.667,84.303
		c-2.469,1.279-3.736,2.621-3.772,4.001c-0.042,1.634,1.68,2.99,2.78,3.687c-0.808-1.562-1.048-3.093-0.714-4.564
		C124.264,86.1,124.979,85.05,125.667,84.303z"/>
</g>
<g>
	<path fill="#FFFFFF" d="M188.996,85.307c0,0,5.32,5.319,0,10.359C188.996,95.666,199.076,90.906,188.996,85.307z"/>
	<path fill="#010101" d="M187.533,96.667l1.271-1.204c1.486-1.408,2.252-2.97,2.275-4.642c0.042-2.951-2.258-5.293-2.281-5.316
		l-1.404-1.408l1.738,0.966c3.13,1.739,4.686,3.6,4.621,5.532c-0.104,3.148-4.453,5.237-4.638,5.325L187.533,96.667z M190.19,86.362
		c0.688,1.031,1.475,2.619,1.45,4.462c-0.018,1.304-0.441,2.541-1.264,3.693c1.225-0.852,2.763-2.253,2.817-3.942
		C193.241,89.151,192.231,87.738,190.19,86.362z"/>
</g>
<g>
	<path fill="#7CAA77" d="M79.519,293.618c0,0,0.063-0.246,0.198-0.664c0.818-2.532,4.28-11.343,12.353-9.42
		c0,0,4.94,6.836,5.082,10.084c0,0,0.404-18.265,9.024-17.813c0,0,4.442,10.344,2.352,15.383c0,0,4.702-7.652,8.097-7.652
		c0,0,10.332,17.077,6.007,19.688C122.632,303.224,91.521,299.409,79.519,293.618z"/>
	<path fill="#010101" d="M122.756,303.803l-0.192-0.023c-1.274-0.156-31.34-3.892-43.288-9.656l-0.412-0.199l0.113-0.444
		c0,0,0.066-0.259,0.208-0.697c0.764-2.365,3.791-10.08,10.664-10.08c0.76,0,1.551,0.097,2.351,0.287l0.202,0.049l0.122,0.168
		c0.152,0.211,2.841,3.952,4.287,7.251c0.561-5.353,2.536-15.586,9.394-15.212l0.348,0.019l0.138,0.319
		c0.155,0.362,3.228,7.601,2.936,12.99c1.734-2.355,4.564-5.598,6.999-5.598h0.316l0.163,0.27c0.026,0.044,2.625,4.353,4.658,8.928
		c2.883,6.488,3.263,10.26,1.159,11.53L122.756,303.803z M80.19,293.316c11.548,5.325,39.571,8.979,42.298,9.324
		c1.259-1.033,0.632-4.651-1.746-10.005c-1.701-3.83-3.808-7.476-4.421-8.517c-2.52,0.391-6.103,5.389-7.316,7.362l-0.994-0.508
		c1.773-4.276-1.491-12.83-2.213-14.617c-7.618,0.098-8.082,17.103-8.086,17.274l-1.119,0.013c-0.121-2.771-4.104-8.545-4.855-9.61
		c-0.646-0.141-1.28-0.212-1.889-0.212c-6.117,0-8.893,7.122-9.598,9.305C80.228,293.194,80.208,293.258,80.19,293.316z"/>
</g>
<path fill="#010101" d="M176.455,117.046c-0.704,0.525-1.482,0.949-2.277,1.327c-0.795,0.379-1.614,0.713-2.446,1.009
	c-1.671,0.576-3.397,0.996-5.144,1.274c-3.497,0.568-7.066,0.592-10.583,0.266c-3.517-0.349-6.99-1.048-10.365-2.046
	c-3.38-0.983-6.66-2.274-9.817-3.793c3.322,1.116,6.666,2.119,10.043,2.949c3.38,0.816,6.798,1.454,10.246,1.777
	c3.444,0.341,6.919,0.366,10.356-0.014c1.717-0.198,3.427-0.493,5.104-0.934C173.254,118.436,174.907,117.866,176.455,117.046z"/>
</svg>
